<svg width="32" height="27" viewBox="0 0 32 27" fill="none" xmlns="http://www.w3.org/2000/svg">
<path d="M20 7.71429C20 3.45407 15.522 0 10 0C4.478 0 0 3.45407 0 7.71429C0 11.9745 4.478 15.4286 10 15.4286C10.908 15.4286 11.772 15.3051 12.61 15.1296L18 17.3571L16.136 13.7642C18.472 12.3525 20 10.1809 20 7.71429ZM7 7.23214C6.172 7.23214 5.5 6.58414 5.5 5.78571C5.5 4.98729 6.172 4.33929 7 4.33929C7.828 4.33929 8.5 4.98729 8.5 5.78571C8.5 6.58414 7.828 7.23214 7 7.23214ZM13 7.23214C12.172 7.23214 11.5 6.58414 11.5 5.78571C11.5 4.98729 12.172 4.33929 13 4.33929C13.828 4.33929 14.5 4.98729 14.5 5.78571C14.5 6.58414 13.828 7.23214 13 7.23214Z" transform="translate(12 9.64282)" fill="#305DFF"/>
<path d="M12 0C5.372 0 0 4.31807 0 9.64286C0 12.7131 1.796 15.4363 4.582 17.199L3 20.25L7.31 18.4699C8.234 18.7862 9.194 19.0466 10.22 19.1681C10.08 18.5799 10 17.9762 10 17.3571C10 12.0401 15.382 7.71429 22 7.71429C22.606 7.71429 23.198 7.7625 23.782 7.83193C22.726 3.37307 17.856 0 12 0ZM8 7.23214C7.172 7.23214 6.5 6.58414 6.5 5.78571C6.5 4.98729 7.172 4.33929 8 4.33929C8.828 4.33929 9.5 4.98729 9.5 5.78571C9.5 6.58414 8.828 7.23214 8 7.23214ZM16 7.23214C15.172 7.23214 14.5 6.58414 14.5 5.78571C14.5 4.98729 15.172 4.33929 16 4.33929C16.828 4.33929 17.5 4.98729 17.5 5.78571C17.5 6.58414 16.828 7.23214 16 7.23214Z" fill="#305DFF"/>
</svg>
