<svg width="64" height="64" viewBox="0 0 64 64" fill="none" xmlns="http://www.w3.org/2000/svg">
<path d="M8.2 21.8V36.1C4.9 35.5 2.4 32.6 2.4 29.1C2.4 28.5 2 28.1 1.4 28.1C0.800002 28.1 0.400002 28.5 0.400002 29.1C0.400002 33.7 3.8 37.5 8.2 38.2V40.9C8.2 41.5 8.6 41.9 9.2 41.9C9.8 41.9 10.2 41.5 10.2 40.9V38.3C14.9 38 18.7 34 18.7 29.2C18.7 24.4 14.9 20.4 10.2 20.1V5.6C13.7 6.1 16.4 9.1 16.4 12.7C16.4 13.3 16.8 13.7 17.4 13.7C18 13.7 18.4 13.3 18.4 12.7C18.4 8 14.8 4.1 10.2 3.6V0.999999C10.2 0.399999 9.8 -7.62939e-07 9.2 -7.62939e-07C8.6 -7.62939e-07 8.2 0.399999 8.2 0.999999V3.6C3.6 4.1 0 8 0 12.7C0 17.4 3.6 21.3 8.2 21.8ZM16.7 29C16.7 32.7 13.8 35.8 10.2 36.1V21.9C13.8 22.2 16.7 25.3 16.7 29ZM8.2 5.6V19.8C4.7 19.2 2 16.3 2 12.6C2 8.9 4.7 6 8.2 5.6Z" transform="translate(23 11.0001)" fill="#305DFF"/>
<circle cx="32" cy="32" r="31.5" stroke="#305DFF"/>
</svg>
