<svg width="22" height="24" viewBox="0 0 22 24" fill="none" xmlns="http://www.w3.org/2000/svg">
<circle cx="6" cy="6" r="5.35" transform="translate(0 1)" stroke="#787878" stroke-width="1.3"/>
<circle cx="6" cy="6" r="5.35" transform="translate(10 11)" stroke="#787878" stroke-width="1.3"/>
<path d="M1.33261 3.45373C1.43065 3.59873 1.59045 3.67688 1.7532 3.67688C1.85098 3.67688 1.94972 3.64868 2.0368 3.58985C2.26883 3.43299 2.32978 3.11769 2.17292 2.88567L1.70624 2.19533C4.93408 3.37289 7.33684 6.25278 7.85368 9.7128C7.89126 9.9644 8.10766 10.1451 8.35465 10.1451C8.37955 10.1451 8.4048 10.1432 8.43021 10.1395C8.70722 10.0981 8.89827 9.84 8.85688 9.56294C8.28192 5.71382 5.59856 2.51311 1.99846 1.22225L2.56642 0.971104C2.82259 0.857856 2.93842 0.558329 2.82518 0.302165C2.71198 0.0460003 2.4124 -0.0697835 2.15629 0.0434138L0.302023 0.863282C0.164635 0.92404 0.0612251 1.04261 0.0197398 1.18695C-0.0217456 1.33134 0.00285243 1.48668 0.0869896 1.61113L1.33261 3.45373Z" transform="translate(12.5835 0.912354)" fill="#787878"/>
<path d="M7.5299 6.69131C7.37304 6.45929 7.05774 6.39838 6.82572 6.55519C6.59364 6.71205 6.53273 7.02735 6.68959 7.25937L7.15628 7.94966C3.92844 6.77215 1.52573 3.89226 1.00884 0.432294C0.967456 0.155285 0.709161 -0.0357106 0.432305 0.00562266C0.155296 0.0470066 -0.0357497 0.305098 0.00563422 0.582157C0.580597 4.43127 3.26401 7.63198 6.86401 8.92285L6.29599 9.17399C6.03983 9.28724 5.92399 9.58677 6.03724 9.84293C6.12102 10.0324 6.30669 10.1451 6.50134 10.1451C6.56986 10.1451 6.63949 10.1311 6.70618 10.1017L8.56044 9.28181C8.69783 9.22105 8.80124 9.10248 8.84273 8.95814C8.88426 8.81376 8.85961 8.65841 8.77548 8.53396L7.5299 6.69131Z" transform="translate(0.554199 12.9426)" fill="#787878"/>
</svg>
