<svg width="18" height="20" viewBox="0 0 18 20" fill="none" xmlns="http://www.w3.org/2000/svg">
<path d="M17.1032 1.34676C16.9331 1.23256 16.7159 1.21022 16.5248 1.28594C16.4826 1.30331 12.3926 2.9219 8.95438 1.30083C6.00268 -0.0930938 2.75185 0.558563 1.24125 0.999206V0.620625C1.24125 0.27804 0.96321 0 0.620625 0C0.27804 0 0 0.27804 0 0.620625V19.2394C0 19.582 0.27804 19.86 0.620625 19.86C0.96321 19.86 1.24125 19.582 1.24125 19.2394V12.23C2.341 11.8713 5.60052 11.0186 8.42436 12.3529C9.76615 12.9872 11.17 13.1982 12.4448 13.1982C14.8962 13.1982 16.8673 12.4175 16.9902 12.3678C17.2236 12.2722 17.3775 12.0451 17.3775 11.7919V1.86188C17.3775 1.65583 17.2745 1.46343 17.1032 1.34676ZM16.1362 11.3525C15.0303 11.7112 11.772 12.5602 8.95314 11.2296C6.00268 9.83691 2.75185 10.4886 1.24125 10.9292V2.30128C2.341 1.94256 5.60052 1.08982 8.42436 2.42416C11.3723 3.8156 14.6256 3.16519 16.1362 2.7233V11.3525Z" fill="#474747"/>
</svg>
