<svg width="9" height="8" viewBox="0 0 9 8" fill="none" xmlns="http://www.w3.org/2000/svg">
<path d="M8.82701 1.09788L7.64591 0.0460253C7.60966 0.0135443 7.56149 -0.00297303 7.51396 0.000441169C7.46579 0.00367082 7.42081 0.0260938 7.38894 0.0629118L3.10508 5.0039L1.58188 2.96083C1.55283 2.92189 1.50958 2.89614 1.46177 2.8895C1.41406 2.8823 1.36534 2.8954 1.32692 2.92503L0.0723328 3.88543C-0.00788837 3.94689 -0.0238233 4.0626 0.0368206 4.14389L2.85722 7.92683C2.89018 7.97103 2.94117 7.99797 2.99581 8C2.99799 8 3.00027 8 3.00246 8C3.05472 8 3.10462 7.9773 3.13931 7.93725L8.84349 1.35828C8.90996 1.28178 8.90258 1.16505 8.82701 1.09788Z" fill="#00CCC0"/>
</svg>
