<svg width="22" height="22" viewBox="0 0 22 22" fill="none" xmlns="http://www.w3.org/2000/svg">
<path d="M6.28581 6.02191H17.5301L14.4802 9.0881C14.1704 9.39926 14.1704 9.90427 14.4802 10.2158C14.6349 10.3714 14.838 10.4493 15.041 10.4493C15.244 10.4493 15.4467 10.3714 15.6017 10.2158L20.0051 5.78872C20.0417 5.75186 20.0745 5.71146 20.1034 5.66823C20.1108 5.65653 20.1161 5.64377 20.1231 5.63172C20.1429 5.59912 20.1619 5.56651 20.1764 5.53108C20.1834 5.51513 20.1862 5.49741 20.1922 5.48075C20.2031 5.44815 20.2148 5.41625 20.2218 5.38223C20.232 5.33084 20.2377 5.27804 20.2377 5.22453C20.2377 5.17101 20.232 5.11821 20.2218 5.06682C20.2148 5.03245 20.2031 5.00055 20.1922 4.9683C20.1862 4.95165 20.1834 4.93428 20.1764 4.91798C20.1619 4.88254 20.1425 4.84994 20.1231 4.81733C20.1161 4.80528 20.1112 4.79252 20.1034 4.78083C20.0745 4.73724 20.0414 4.69684 20.0051 4.66034L15.6025 0.233633C15.2926 -0.0778774 14.7907 -0.0778774 14.4809 0.233633C14.1711 0.544788 14.1711 1.0498 14.4809 1.36131L17.5301 4.42715H6.28581C2.8197 4.42715 1.29076e-07 7.26228 1.29076e-07 10.7474C1.29076e-07 11.1879 0.355282 11.5447 0.793041 11.5447C1.2308 11.5447 1.58608 11.1879 1.58608 10.7474C1.58608 8.14188 3.69416 6.02191 6.28581 6.02191ZM21.207 10.4546C20.7692 10.4546 20.4139 10.8115 20.4139 11.252C20.4139 13.8579 18.3058 15.9775 15.7142 15.9775H4.46993L7.51979 12.9113C7.8296 12.6001 7.8296 12.0951 7.51979 11.7836C7.20997 11.4721 6.70807 11.4721 6.39825 11.7836L1.99494 16.2107C1.95828 16.2475 1.9255 16.2879 1.8966 16.3315C1.8892 16.3425 1.88462 16.3545 1.87792 16.3662C1.85783 16.3992 1.83844 16.4325 1.82364 16.4687C1.81694 16.4843 1.81412 16.5016 1.80849 16.5179C1.79721 16.5505 1.78522 16.5831 1.77817 16.6175C1.76795 16.6692 1.76231 16.7217 1.76231 16.7752C1.76231 16.8287 1.76795 16.8812 1.77817 16.9329C1.78522 16.9673 1.79721 16.9999 1.80849 17.0325C1.81412 17.0488 1.81694 17.0658 1.82364 17.0818C1.83844 17.1179 1.85818 17.1509 1.87792 17.1842C1.88462 17.1955 1.8892 17.2079 1.8966 17.2189C1.9255 17.2625 1.95863 17.3029 1.99494 17.3398L6.39755 21.7665C6.55228 21.922 6.7553 22 6.95831 22C7.16133 22 7.364 21.922 7.51908 21.7665C7.8289 21.4553 7.8289 20.9503 7.51908 20.6388L4.46993 17.5729H15.7142C19.1803 17.5729 22 14.7378 22 11.2527C22 10.8115 21.6447 10.4546 21.207 10.4546Z" fill="white" fill-opacity="0.59"/>
</svg>
