<svg width="126" height="127" viewBox="0 0 126 127" fill="none" xmlns="http://www.w3.org/2000/svg">
<path d="M0.0268659 0.129713C-0.0060104 0.715206 0.672885 0.505283 0.801103 0.593845C0.602201 -0.396737 -0.150666 0.157594 0.0268659 0.129713Z" transform="translate(125.199 63.8579)" fill="#4577F0"/>
<path d="M0.588482 1.13983L0.890941 1.26119L-5.51817e-06 2.35235e-06L0.588482 1.13983Z" transform="translate(122.237 53.457)" fill="#4577F0"/>
<path d="M0.240884 -1.7017e-06C-0.653351 1.1349 1.23046 3.03899 1.22553 4.67738L1.02826 4.98735L2.12797 5.47444C1.4951 3.62448 0.285267 1.38747 0.240884 -1.7017e-06Z" transform="translate(120.634 45.9817)" fill="#4577F0"/>
<path d="M0.36194 0.010025C0.0430402 0.462675 -0.367919 -0.839512 0.624943 1.13509C0.633162 1.01373 0.649606 0.972726 0.661113 0.898924C0.587141 0.71524 0.493445 0.459395 0.36194 0.010025Z" transform="translate(121.246 40.6022)" fill="#4577F0"/>
<path d="M4.01321e-07 0.194619C0.366571 1.095 0.138081 -0.536838 4.01321e-07 0.194619V0.194619Z" transform="translate(121.907 41.3065)" fill="#4577F0"/>
<path d="M-8.02643e-07 0.806262L0.923829 1.78864C1.05533 1.43931 0.614788 0.379852 0.976427 0.681618C0.198904 -0.417206 0.0789022 -0.0481972 -8.02643e-07 0.806262Z" transform="translate(119.923 36.6882)" fill="#4577F0"/>
<path d="M-5.01652e-06 1.75175e-06L0.438903 0.511693C0.491505 0.35917 0.4504 0.185326 -5.01652e-06 1.75175e-06Z" transform="translate(118.629 36.7844)" fill="#4577F0"/>
<path d="M1.07784 1.09718L0.145808 2.2022e-06C0.0553981 0.246008 -0.283231 0.421489 0.540319 0.516611C0.175393 0.560892 0.597846 0.664215 1.07784 1.09718Z" transform="translate(118.922 37.2961)" fill="#4577F0"/>
<path d="M0.601634 2.95295e-06C0.692043 0.734739 0.838347 1.6466 2.50826e-06 0.642894C0.994509 2.8061 1.68984 2.16813 0.601634 2.95295e-06Z" transform="translate(119.575 39.1739)" fill="#4577F0"/>
<path d="M0.0525974 0.0144609C0.0525974 0.0144609 0.0476714 0.252261 0.0427399 0.490067C0.0361647 0.727872 -8.02643e-07 0.972241 -8.02643e-07 0.972241L0.573688 1.61349C0.312322 1.28549 0.41588 -0.159383 0.0525974 0.0144609Z" transform="translate(119.512 45.9131)" fill="#4577F0"/>
<path d="M0.56383 4.25424e-07C0.310682 0.0656019 0.223557 0.718334 -2.00661e-06 0.96598L0.731494 1.61708C0.627934 1.11851 0.284381 0.252566 0.56383 4.25424e-07Z" transform="translate(116.089 30.2209)" fill="#4577F0"/>
<path d="M1.0882 0.96106L-5.31751e-06 8.50849e-07C0.603274 1.08406 0.894233 1.17098 1.0882 0.96106Z" transform="translate(115 30.2258)" fill="#4577F0"/>
<path d="M0.198902 0.382126L1.98901 2.02381L-3.11024e-06 9.00899e-07L0.198902 0.382126Z" transform="translate(117.165 36.7745)" fill="#4577F0"/>
<path d="M0.613138 0.324726L1.56162 0.628132L6.12015e-06 -5.50549e-07L0.613138 0.324726Z" transform="translate(112.992 25.4222)" fill="#4577F0"/>
<path d="M1.67012 2.19109C2.43942 2.32885 1.73751 1.0611 2.38846 1.34155C1.65696 0.660933 0.779163 0.305047 -4.41454e-06 4.75474e-07C0.690397 0.45101 1.23122 1.12507 1.67012 2.19109Z" transform="translate(109.656 20.7792)" fill="#4577F0"/>
<path d="M1.0033e-07 7.00699e-07C0.350132 0.213205 0.777519 0.377209 1.24107 0.564173C0.874504 0.324728 0.475062 0.124643 1.0033e-07 7.00699e-07Z" transform="translate(108.415 20.2151)" fill="#4577F0"/>
<path d="M0.32054 1.29399C0.379717 1.12178 0.578624 0.729817 0.241643 1.05105e-06L-3.11024e-06 0.849539C0.0986257 0.984022 0.208761 1.13819 0.32054 1.29399Z" transform="translate(113.466 26.8998)" fill="#4577F0"/>
<path d="M0.669031 0.997143L0.675603 0.969262C0.335334 0.482171 0.100276 0.144324 3.41123e-06 1.12612e-06C0.0838379 0.124644 0.286023 0.42477 0.669031 0.997143Z" transform="translate(112.792 26.7801)" fill="#4577F0"/>
<path d="M0.0932657 0.110643C0.0639119 0.0699648 0.0427061 0.0390513 0.0133523 3.22763e-07C-0.0111092 0.0813564 -0.0111033 0.118778 0.0932657 0.110643Z" transform="translate(113.773 28.1938)" fill="#4577F0"/>
<path d="M1.71588 0.881265C0.953151 0.379414 -0.263272 -0.809612 0.0506963 0.858305C0.762467 1.10267 0.575074 0.139969 1.71588 0.881265Z" transform="translate(114.554 32.81)" fill="#4577F0"/>
<path d="M1.90628e-06 0.000529389C0.034522 -0.0224311 0.642731 1.31748 0.642731 1.31748C0.784099 1.19283 0.872859 0.820546 1.246 1.05671C1.246 1.05671 0.034522 -0.0273512 1.90628e-06 0.000529389Z" transform="translate(113.548 29.343)" fill="#4577F0"/>
<path d="M-8.02643e-07 0.0213213L0.6115 0.465771L0.336984 2.5025e-08L-8.02643e-07 0.0213213Z" transform="translate(112.937 28.8777)" fill="#4577F0"/>
<path d="M1.7145 1.31695C1.05368 1.0447 0.567116 0.547773 4.01322e-07 7.50749e-07C0.468487 0.716697 0.99615 1.41043 1.5534 2.01888C1.79833 1.95984 2.34572 1.9746 1.7145 1.31695Z" transform="translate(107.935 21.2286)" fill="#4577F0"/>
<path d="M0.116717 0.0885634C0.0789092 0.0606828 0.0345152 0.0262406 -4.91619e-06 2.5025e-08C0.00657034 0.106602 0.0328825 0.173845 0.116717 0.0885634Z" transform="translate(111.414 24.9827)" fill="#4577F0"/>
<path d="M-5.6185e-06 8.00799e-07L0.00986438 0.182045L0.110132 0.108243L-5.6185e-06 8.00799e-07Z" transform="translate(102.329 15.887)" fill="#4577F0"/>
<path d="M0.101175 0.190245C0.421718 0.744577 0.80473 0.911859 1.21404 1.04306C0.842538 0.736375 0.47103 0.395248 0.106104 -9.00899e-07C-0.00403182 0.0262397 -0.0615626 0.0623223 0.101175 0.190245Z" transform="translate(109.382 23.2475)" fill="#4577F0"/>
<path d="M-3.91288e-06 0.00313905C0.159446 0.331146 0.332054 0.685395 0.511229 1.0544C0.465203 0.647675 0.220267 -0.0526222 -3.91288e-06 0.00313905Z" transform="translate(106.664 18.8638)" fill="#4577F0"/>
<path d="M-5.01652e-06 0.120762L0.0821906 0.178166C0.0723278 -0.0825995 0.0312274 -0.017001 -5.01652e-06 0.120762Z" transform="translate(111.437 24.5683)" fill="#4577F0"/>
<path d="M0.841627 0.400167C0.563823 0.201723 0.27781 0.104962 5.81916e-06 -5.25524e-07C0.27781 0.268965 0.550672 0.510051 0.818614 0.693735C0.810395 0.600253 0.821901 0.488729 0.841627 0.400167Z" transform="translate(110.596 24.2889)" fill="#4577F0"/>
<path d="M1.04053 2.15173C1.49094 1.7204 3.22023 2.10908 3.73146 3.60152C5.03335 4.12469 5.82567 1.95492 5.66951 0.203365C5.44595 0.40509 5.31445 0.547772 3.91556 0C4.15063 0.526452 5.78621 2.67982 4.51884 2.32721C2.92762 1.34319 3.47995 1.20543 2.9868 0.360807C3.09365 1.44979 0.374795 -0.118082 5.6185e-06 1.08734L1.52381 1.70072C1.43176 1.86308 0.79396 1.75484 1.04053 2.15173Z" transform="translate(96.6696 15.8657)" fill="#4577F0"/>
<path d="M1.91011 2.06427L2.40819 2.40703C1.97915 1.86582 1.79504 1.34593 1.45477 0.352068C0.496432 -0.0841817 0.190679 -0.0366221 -3.41123e-06 0.0814605L2.12874 2.12987L1.91011 2.06427Z" transform="translate(102.439 15.9122)" fill="#4577F0"/>
<path d="M1.98123 1.83356C1.18398 1.95656 -0.106423 1.26611 0.0070005 2.38133C1.2678 3.53264 1.2563 2.82906 2.19163 3.36371C0.176317 1.41863 3.02176 3.68844 1.93684 1.90736C2.39875 2.23373 2.76368 2.57814 3.10559 2.90778C2.82286 2.47153 2.56643 2.03365 2.34451 1.5974C2.34944 1.62856 2.35272 1.64987 2.35765 1.67612L2.36752 1.68596L2.3593 1.69088C2.37902 1.8434 2.36752 1.91064 2.30998 1.77452C2.29848 1.77288 2.27218 1.74992 2.25903 1.74008C2.17684 1.7942 2.07985 1.81552 1.98287 1.83192C1.53246 1.12343 2.02561 1.60724 2.25903 1.74008C2.2919 1.72204 2.32971 1.71548 2.3593 1.69088L2.35765 1.67776C2.40861 1.61872 0.0185134 -4.25424e-07 0.0185134 -4.25424e-07C0.385084 0.48709 0.993295 0.93646 1.98123 1.83356Z" transform="translate(104.829 18.3208)" fill="#4577F0"/>
<path d="M0.081535 0.230419C0.0913978 0.127097 0.135779 0.102499 0.176874 0.0713384C0.0108488 -0.0319838 -0.0729834 -0.0565873 0.081535 0.230419Z" transform="translate(112.466 32.9835)" fill="#4577F0"/>
<path d="M5.41784e-06 2.09118C0.185756 2.20598 0.509585 2.1945 0.780814 2.77999C0.889306 3.36548 0.491499 2.95547 0.309035 3.10308C0.665743 3.32776 1.44491 3.99198 1.10793 2.77507L0.925465 2.66191C0.567114 1.60409 0.557255 -0.104834 0.73643 0.00504851C0.378079 0.638102 0.149592 1.13504 5.41784e-06 2.09118Z" transform="translate(112.332 29.9502)" fill="#4577F0"/>
<path d="M1.75066 1.52359C1.75066 1.52359 1.36108 1.09882 0.902455 0.734735C0.450406 0.367367 -4.31421e-06 -1.2012e-06 -4.31421e-06 -1.2012e-06L0.312324 1.25299L0.555613 0.97418C1.2756 2.0566 1.42025 1.58099 1.75066 1.52359Z" transform="translate(107.989 24.5464)" fill="#4577F0"/>
<path d="M1.03724 0.398528L1.75231 0.036082C1.77039 0.00492133 -3.00991e-07 -8.50849e-07 -3.00991e-07 -8.50849e-07L1.03724 0.398528Z" transform="translate(101.315 15.0358)" fill="#4577F0"/>
<path d="M0.410958 0.626493L0.892594 0.177123L4.41454e-06 -1.001e-06L0.410958 0.626493Z" transform="translate(99.4114 13.0203)" fill="#4577F0"/>
<path d="M-5.51817e-07 -2.3023e-06L0.475061 0.424771C0.276159 0.209927 0.126573 0.0836395 -5.51817e-07 -2.3023e-06Z" transform="translate(14.0447 92.6554)" fill="#4577F0"/>
<path d="M0.335337 -5.00499e-07L1.37954e-06 0.042642C0.248217 0.150884 0.401089 0.167283 0.335337 -5.00499e-07Z" transform="translate(11.6499 88.7571)" fill="#4577F0"/>
<path d="M2.29169 0.0194795C1.10486 0.0293197 -0.409094 -0.146165 0.102132 0.396687L0.764588 0.826378C1.30376 0.349128 1.81498 0.129362 2.29169 0.0194795Z" transform="translate(26.0972 10.5686)" fill="#4577F0"/>
<path d="M0.254792 0.99222C0.336982 0.918418 0.422459 0.839698 0.507938 0.760977C0.325474 0.488731 0.156162 0.232884 -5.64358e-07 -1.25125e-06C0.0805463 0.300125 0.128218 0.631412 0.254792 0.99222Z" transform="translate(3.41443 51.8235)" fill="#4577F0"/>
<path d="M0.632866 -1.001e-07L-3.63698e-07 1.09882C0.200545 0.859376 0.409308 0.506771 0.632866 -1.001e-07Z" transform="translate(5.83398 54.0195)" fill="#4577F0"/>
<path d="M-2.50826e-07 0.473961C-2.50826e-07 0.473961 0.24164 0.429679 0.484925 0.385398C0.73314 0.327997 0.981356 0.270596 0.981356 0.270596C0.0805468 -0.331297 0.277804 0.223036 -2.50826e-07 0.473961Z" transform="translate(30.8247 109.054)" fill="#4577F0"/>
<path d="M2.11559 0.752776C1.28875 0.346047 0.604924 0.124643 1.30429e-06 5.00499e-07C1.0093 0.564173 1.75724 1.29727 2.11559 0.752776Z" transform="translate(68.687 1.19562)" fill="#4577F0"/>
<path d="M-8.52808e-07 0.0669985C0.333693 0.367125 0.55232 0.450767 0.685469 0.362206C0.353419 0.0505987 0.105203 -0.095365 -8.52808e-07 0.0669985Z" transform="translate(6.51099 94.7533)" fill="#4577F0"/>
<path d="M-1.95644e-06 0.246478C0.149585 0.3252 0.299174 0.369481 0.452049 0.436722C1.10136 0.366201 1.76381 0.254678 2.53805 0.413762C1.79669 0.000472884 0.895876 -0.184852 -1.95644e-06 0.246478Z" transform="translate(66.147 0.78186)" fill="#4577F0"/>
<path d="M-3.11024e-06 0.148896C0.060818 0.112815 0.111781 0.0554051 0.174246 0.0275245C0.101918 -0.0429971 0.0542427 0.030813 -3.11024e-06 0.148896Z" transform="translate(107.713 95.2044)" fill="#4577F0"/>
<path d="M0.123286 1.3013e-06C0.126574 0.285368 0.0575389 0.741298 5.41784e-06 1.17263C0.0821961 0.970903 0.131505 0.616655 0.123286 1.3013e-06Z" transform="translate(123.633 72.7635)" fill="#4577F0"/>
<path d="M2.70892e-06 0.00161174C0.614789 0.245977 0.12822 -0.0229888 2.70892e-06 0.00161174V0.00161174Z" transform="translate(89.3234 6.94556)" fill="#4577F0"/>
<path d="M0.391222 -7.75774e-07C0.233416 0.0114795 0.0920494 0.0574028 -4.11355e-06 0.195166C0.128213 0.067243 0.259717 0.00983944 0.391222 -7.75774e-07Z" transform="translate(90.4772 10.816)" fill="#4577F0"/>
<path d="M0.0526002 7.25724e-07C0.0345182 7.25724e-07 0.0197277 7.25724e-07 1.95644e-06 7.25724e-07C0.185753 0.129564 0.154517 0.104963 0.0526002 7.25724e-07Z" transform="translate(59.7018 5.3465)" fill="#4577F0"/>
<path d="M0.664105 0.554333C0.481642 0.369009 0.256441 0.180404 5.91949e-06 1.75175e-07C0.0986347 0.108243 0.299179 0.282087 0.664105 0.554333Z" transform="translate(89.4088 7.11279)" fill="#4577F0"/>
<path d="M2.00661e-07 -6.75674e-07C0.19397 0.123002 0.343552 0.219765 0.488208 0.311607C0.616425 0.242726 0.583554 0.144322 2.00661e-07 -6.75674e-07Z" transform="translate(90.1039 7.30798)" fill="#4577F0"/>
<path d="M2.80925e-06 -6.50649e-07C0.345203 0.152523 0.647668 0.334568 0.930404 0.528092C0.835063 0.42805 0.802183 0.369009 0.844923 0.362448C0.667391 0.287007 0.415887 0.178763 2.80925e-06 -6.50649e-07Z" transform="translate(88.4781 6.58472)" fill="#4577F0"/>
<path d="M-2.3076e-06 0.213207C0.041093 0.229608 0.0887648 0.236167 0.134792 0.260767C0.683825 -0.121361 0.430677 -0.0360783 -2.3076e-06 0.213207Z" transform="translate(69.3098 120.848)" fill="#4577F0"/>
<path d="M0.057076 0.0699655C0.0701221 0.0455587 0.0652315 0.0227801 0.0766469 4.22075e-07C0.0521854 0.0146445 0.0228301 0.0325427 -5.97205e-07 0.0455596L0.057076 0.0699655Z" transform="translate(20.6316 26.3259)" fill="#4577F0"/>
<path d="M1.04546 2.77658C0.968204 1.54819 1.39888 1.23495 1.98737 0.86758L-9.02973e-07 -9.00899e-07C-9.02973e-07 -9.00899e-07 0.256434 0.700295 0.512869 1.40059C0.779167 2.08941 1.04546 2.77658 1.04546 2.77658Z" transform="translate(18.6458 25.5026)" fill="#4577F0"/>
<mask id="path-58-inside-1" fill="white">
<path d="M20.4327 101.039L19.9527 99.5649C21.9138 100.146 22.4398 101.266 22.2343 99.706C21.3647 100.359 20.3127 99.4452 19.4497 98.3792C18.5867 97.3131 17.7171 96.2537 16.7506 96.8211L16.5632 95.7928C16.7078 96.0208 16.841 95.9814 16.984 96.2061C16.7522 94.1512 14.8503 96.0159 13.8361 93.774C13.5435 92.9638 13.5205 92.3061 14.0448 92.6554L12.595 91.3401C12.3616 90.8481 12.761 90.7858 13.0043 91.2647C13.0043 91.2647 12.904 91.1171 12.7544 90.8973C12.6246 90.6661 12.452 90.3561 12.2794 90.0478C11.9325 89.4279 11.584 88.8096 11.584 88.8096L11.6514 88.7997C11.1632 88.5898 10.269 87.9846 9.85805 87.6648C9.83174 86.8743 10.2345 87.8994 10.4054 87.6156C10.4054 87.6156 9.19723 86.4069 9.23175 86.3872C9.38956 85.969 9.70681 86.0215 10.029 86.3003C10.3824 86.5676 10.7523 87.0547 10.9512 87.5615C11.6482 86.443 11.3802 86.2265 10.9183 85.8411C10.5024 85.4459 9.89585 84.8636 9.96654 83.1662L10.7326 84.4389C11.5923 83.1072 10.7802 82.215 10.9693 80.4634C10.6997 80.9112 10.2197 84.1699 9.1134 82.7775C9.1134 82.2675 8.95066 81.6656 8.23231 80.9243C8.98847 80.6815 8.58409 79.8779 8.2619 78.807L9.2975 78.6069C8.70902 77.5376 8.21094 77.7557 7.57314 77.1752C7.33315 75.8402 8.05314 75.4105 8.69587 74.9693C8.54628 72.8422 7.63396 76.6799 7.06027 74.2067C7.12438 73.2834 7.00274 72.5355 6.74466 71.7548C6.49316 70.9725 6.05097 70.164 5.72714 69.098C6.02796 67.8024 6.37974 69.2685 6.65754 68.7913L5.76495 67.7302C5.77153 67.453 6.03289 67.5285 6.1644 67.5662C5.79125 66.6363 5.11071 67.5481 4.74907 66.0459C4.17538 65.8573 4.50579 65.0569 4.93154 64.1041C5.38523 63.1446 5.82741 62.0475 5.21756 61.0815C5.5381 60.642 5.85043 61.3406 6.26303 61.2225C5.52824 58.6378 5.69098 59.0216 4.87894 56.7944L5.83399 55.115C4.85592 56.2975 4.18525 54.4935 3.66745 52.8108C3.22033 53.2175 2.82746 53.575 2.62856 53.826C2.62856 53.826 2.58417 53.1831 2.54143 52.5402C2.5102 51.8973 2.55294 51.2626 2.55294 51.2626C2.79622 51.0051 3.08553 51.3331 3.4143 51.8169C3.37156 51.6349 3.32718 51.461 3.28115 51.3233C3.88114 50.5492 4.3562 51.1412 4.77537 51.8645L3.92224 52.5779C4.45647 53.3044 5.06962 53.9768 5.69427 53.967C5.59728 53.7932 5.53975 53.4799 5.53153 53.1453C5.67783 53.3307 5.81591 53.457 5.93098 53.4078C6.06084 53.352 5.83563 53.0584 5.6844 52.6304L6.96493 52.3598L6.54247 52.1351L8.01369 49.3634C7.86574 48.7599 7.67342 48.1531 7.49589 47.5299C7.36274 46.9198 7.23123 46.2867 7.13589 45.6143C6.96658 44.2777 6.86466 42.7311 7.36274 40.9615C7.76054 42.1112 8.57094 41.6831 9.48326 42.1325C8.11067 42.6048 8.96381 44.85 8.13204 46.4442C8.56436 45.5963 8.95066 45.9538 9.02792 46.2293L9.21202 42.8754C9.95174 43.2576 10.0093 42.4671 10.7145 41.8685C8.93093 41.7783 10.7621 39.2559 10.8887 37.829C11.4114 38.0127 11.778 38.5572 10.966 39.9316C12.8481 38.9377 10.1753 36.9451 12.0591 35.9545C11.8651 36.2989 11.6794 36.4399 11.8438 36.7105C11.898 35.6806 13.412 33.9438 13.5402 34.6539L13.3462 34.9934C13.7259 34.4637 14.1714 33.7782 14.612 33.0303C15.0821 32.3005 15.6262 31.5592 16.0486 30.813C16.9199 29.3419 17.4459 27.9183 17.0678 27.341C17.2223 27.4378 18.1297 28.6694 18.2661 28.9761C18.2661 28.9761 18.202 28.5563 18.1692 27.9593C18.133 27.3443 18.0853 26.5259 18.0377 25.7075C17.9604 24.0478 17.9538 22.311 17.9538 22.311C18.5472 23.441 21.654 24.2676 20.7039 26.3226C21.2628 26.0028 21.8414 25.5255 22.499 24.3578C22.0683 24.5054 20.5001 23.8494 20.8469 23.3672C22.9724 23.2426 22.185 23.1196 24.3959 22.6505C23.7581 22.8834 23.0151 21.017 23.8239 20.3643C23.8896 20.6841 25.0962 21.7141 24.9565 22.106C24.9565 22.106 25.1176 21.3368 25.2787 20.566C25.4611 19.8083 25.6978 19.0802 25.6978 19.0802C25.3954 19.7198 26.5921 20.3627 27.3531 20.4496C26.9258 20.3151 29.0775 19.2064 29.4934 18.6652L28.4035 18.9457C30.769 17.4762 29.2156 15.2048 31.7553 13.7484C31.6419 14.2617 32.2468 16.1953 33.5684 15.6623C33.6177 15.1047 33.6358 13.6828 34.0057 12.2757C34.3706 10.8718 35.0314 9.35147 36.0933 8.43797L36.7804 8.70857C36.7804 8.70857 37.1799 8.34613 37.5809 7.98368C37.982 7.61795 38.4176 7.3211 38.4176 7.3211C38.0642 8.15916 37.4264 9.73851 36.7574 11.2375C36.09 12.7529 35.4029 14.2191 34.8867 15.131C36.0193 15.0408 35.4473 15.5639 36.8182 14.8472C37.5333 15.067 36.4122 15.8936 36.0243 16.1101L39.3563 14.8735C39.0571 14.4061 39.5552 13.8583 40.0779 13.3236C40.622 12.8447 41.1973 12.3987 40.9623 11.9936C40.9623 11.9936 40.7568 12.1444 40.4461 12.3708C40.1321 12.584 39.7311 12.9005 39.353 13.2613C38.5919 13.9452 37.8308 14.6291 37.8308 14.6291C37.5201 14.1683 37.6878 13.2187 38.273 12.2478C38.8352 11.2359 39.8889 10.3568 41.1875 10.0026C41.9732 10.183 41.411 12.0116 41.605 12.3314C41.776 11.8673 43.6598 10.8095 43.9688 10.9817L43.1354 11.9148C43.8718 11.8656 44.2959 11.3211 44.7956 10.8324C45.2954 10.3584 45.9003 10.0304 46.8751 10.3125C47.4816 10.2305 48.9348 11.2506 48.8756 10.5913C47.6657 9.60403 46.451 5.89591 46.9145 4.80201C47.0362 4.81513 47.9386 4.89385 48.897 5.02833C49.8504 5.12837 50.9008 5.49738 51.3051 5.72371C52.4788 6.54373 50.2153 8.2674 51.2295 8.96934C51.2082 8.66757 51.6849 8.21984 51.892 8.06732C52.5643 8.2264 51.7934 9.02674 53.1232 8.68561C53.1824 7.54743 55.9062 8.35596 53.6295 7.65239C54.9363 7.16366 55.0793 7.58679 56.659 7.44903C56.0706 6.75529 57.8985 4.92829 59.3302 4.53468C59.2579 4.82333 59.5916 5.17758 59.7478 5.3383C60.4661 5.32682 61.1006 5.3465 61.6891 5.37766C62.2776 5.44982 62.8201 5.56462 63.3543 5.65811C64.4228 5.85327 65.4584 6.03531 66.7816 6.10584C67.0068 6.37808 68.2364 6.79465 67.6512 7.22926C68.0408 7.08166 68.4254 6.76185 69.2309 6.85697C70.6462 8.05092 67.4392 6.73397 68.4731 8.06896C68.6441 7.43919 70.6265 7.49003 71.8397 7.26534C71.6572 6.22228 69.2063 6.67001 68.0359 6.89961C68.1624 5.52198 70.3652 4.38872 73.3717 4.20175C75.7092 4.27883 74.1624 5.2809 74.598 5.15133C76.6412 5.79915 77.6719 5.43998 78.622 5.15789C79.5672 4.87253 80.4434 4.63308 81.9869 5.76635C83.0439 7.08986 81.4675 7.44246 81.5579 8.1526C80.6439 8.00336 80.039 7.61303 79.4916 7.25386C78.9343 6.92749 78.4527 6.58309 77.8429 6.44368L79.2105 7.22598C78.5596 7.3621 77.33 7.27518 76.753 6.86353C77.685 7.79999 83.5305 8.9923 86.1227 11.0883C86.754 11.0653 87.7813 11.2178 87.5118 10.6947L86.5353 10.3617C85.9699 9.30062 88.7101 10.3158 87.6663 9.44495C88.406 9.52203 89.2246 9.55975 90.0662 9.73359C90.4871 9.82052 90.9145 9.94024 91.3336 10.119C91.7347 10.3322 92.1309 10.6028 92.5106 10.9489L92.3265 12.0132C92.4416 11.741 91.5144 10.8177 90.8865 10.8045C91.835 10.8455 92.7835 13.5418 94.2415 12.8825L93.4114 11.5639C94.8629 11.8935 97.0738 11.8328 98.31 13.2433C98.2146 11.9411 97.9237 13.0826 97.5209 11.3654C97.6787 13.1514 93.5511 8.87914 94.2908 11.1079C93.8355 9.29899 92.675 9.36459 91.6394 7.59335C91.5342 7.91152 91.9024 8.42485 90.589 7.60975C90.4821 7.66551 90.2799 7.70487 90.1534 7.72455C90.1172 7.69503 90.1024 7.68355 90.0712 7.65731L90.1304 7.72947C90.0482 7.74587 90.0383 7.75243 90.1534 7.75407C90.4164 8.04436 90.6038 8.32644 90.6268 8.54293C89.5961 8.89062 87.4559 7.83607 86.5699 7.85083C85.8301 7.3211 87.0581 7.66223 86.7622 7.12758C86.7622 7.12758 86.4301 7.1325 86.0981 7.13742C85.7578 7.16858 85.4192 7.1981 85.4192 7.1981C85.6 6.4814 83.6192 5.23334 85.794 5.57282L83.9874 4.87581C83.0587 4.10663 81.6203 3.37682 80.6028 3.38502C79.7546 2.99961 78.1404 3.59166 79.0675 3.23413L76.0199 2.92417L76.0347 2.73884C74.6078 2.26159 73.0133 2.40591 71.4336 2.29931C69.8441 2.22715 68.2627 1.89586 66.6025 1.21197C65.5817 1.34481 64.5428 1.5203 62.8727 1.23001L62.5538 0.577275C61.2667 0.715038 58.625 0.086903 58.0957 0.747838C57.7209 0.337829 57.1308 0.129544 56.419 0.0475421C55.7073 -0.0508601 54.8788 0.00490251 54.0404 0.201707C52.3523 0.537914 50.6016 1.06929 49.4328 1.09717L49.5068 1.92702C47.9518 2.15991 46.5512 2.84052 44.7611 3.62118L45.0734 4.30016C43.6285 5.19562 40.8834 5.07753 38.4176 6.05008C38.4801 5.72699 39.1376 5.56298 39.6406 5.56134C38.7563 5.44162 37.9393 5.6007 37.1766 5.90083C36.4319 6.24196 35.7612 6.76841 35.1021 7.27682C33.8002 8.33464 32.5443 9.28587 31.0419 9.50235C30.5668 10.1026 30.0868 10.2863 29.5657 10.3863C29.6216 10.3502 29.6643 10.3076 29.6956 10.2617C29.6298 10.2928 29.5361 10.347 29.4408 10.4044C29.1071 10.4585 28.7537 10.5011 28.3904 10.5831C28.7405 10.5799 29.0611 10.5569 29.3076 10.488C28.8474 10.7849 28.1849 11.2933 27.5931 11.8689L26.8633 11.3884C26.8107 11.4294 26.7696 11.4622 26.7137 11.5048C25.8622 11.6836 26.3734 12.1494 27.0671 12.4233C26.7827 12.7283 26.5888 13.1022 26.4638 13.4237C25.2096 12.7677 25.0337 15.0244 23.5132 14.4618C23.4951 14.8899 22.757 15.5967 22.0979 16.361C21.493 17.1925 20.9735 18.083 21.2825 18.7456C21.1412 18.6275 20.911 18.7194 21.2201 18.4225C20.4623 18.8948 19.693 19.3786 19.379 20.1954L18.3977 19.7329C18.3977 19.7329 18.2744 20.3003 18.1527 20.8694C18.0689 21.4599 17.9834 22.0519 17.9834 22.0519C16.7604 22.4849 16.1538 22.621 16.3922 21.2122C15.3517 24.1315 15.138 23.2262 14.4591 25.7797L14.0268 25.2746C13.5254 25.9831 13.3988 27.6018 12.664 27.6871C10.3479 28.4038 7.17863 35.392 4.20497 39.492C5.29975 39.4445 4.82962 39.866 4.3036 40.4252C3.80717 40.9976 3.20225 41.7045 3.86142 42.0636C3.34033 42.1686 2.85705 42.7393 2.77157 41.8357C2.33431 44.3925 0.670774 45.2355 1.48775 47.3249C0.976523 47.4856 0.98803 46.6114 0.662555 46.7886C0.705294 47.0182 0.836799 47.6889 0.508037 47.8776C0.182562 48.0629 0.235163 47.4118 0.149685 46.9575C-0.447019 49.5668 0.851593 50.1392 2.08117 50.6115C1.61925 51.1675 1.36446 51.6136 1.30857 52.0531C1.29214 52.4992 1.46309 52.9387 1.81651 53.4734C1.3283 53.8358 0.769403 54.5148 0.861457 52.9059C0.675706 53.7702 -0.626194 58.2836 0.468585 58.4787C0.187493 58.733 0.325574 59.7219 0.43571 59.9646C0.271328 61.9622 0.167767 62.1393 0.169411 64.109L0.366668 63.5661C1.56008 64.3501 0.644473 65.1849 0.872963 66.7626L0.741459 66.7232C0.374888 68.5502 0.50475 68.9455 0.618173 69.321C0.774335 69.6982 0.72502 70.0705 0.514612 71.9041L1.26912 71.6187C3.0017 71.7171 0.74639 74.8676 1.71953 76.8422L2.04171 76.0173C2.75184 76.9898 0.539269 79.5844 0.608309 80.8226C0.529406 81.1096 0.277902 80.4913 0.0839325 80.1682C-0.10675 83.4319 1.182 80.2961 1.98254 82.4282C1.57158 82.994 0.448859 82.315 0.817073 83.8304C0.734882 84.265 1.55515 85.1949 2.35075 86.2741C3.17923 87.345 3.84826 88.6144 3.86142 89.7542C4.05374 89.1622 4.25429 88.5931 5.00222 89.4049C5.8455 90.7399 5.3918 94.0905 7.33972 94.7039C7.34301 94.9367 7.28548 95.0581 7.19671 95.1171C8.1419 96.0044 9.7775 98.2431 10.7671 98.4546C9.92708 99.6847 11.3917 101.034 12.7166 102.223C14.012 103.449 15.3895 104.354 14.4394 105.161L17.0925 107.872L16.841 107.977C18.4026 109.855 19.5467 109.914 20.5428 110.056C20.8387 110.555 20.3834 110.458 20.2601 110.524C22.4957 113.31 23.0184 113.345 26.0693 114.114L25.8392 114.958C26.2945 115.009 27.1099 116.049 28.3789 117.067C29.6364 118.084 31.1635 119.404 32.9684 119.711C32.8944 119.778 32.7564 119.887 32.4523 119.869C34.4544 120.262 36.2577 121.894 38.0741 122.911C39.8856 123.91 41.5425 124.577 42.6653 123.411C42.6653 123.411 43.3162 123.486 43.9935 123.447C44.6609 123.431 45.3266 123.414 45.3266 123.414C42.2264 122.379 46.1501 122.299 44.9929 121.495C46.2406 121.637 47.9222 123.168 46.3737 122.929L46.1781 122.721C45.2214 124.051 49.9654 124.297 49.6843 125.225C56.0886 126.396 62.4896 127.359 68.7049 126.87C68.7049 126.87 68.4978 126.598 68.289 126.327C68.0835 126.043 67.8781 125.761 67.8781 125.761C67.8813 125.806 69.9887 125.533 69.9887 125.533C70.5756 125.725 70.8665 126.35 69.3361 126.532C70.2304 127.085 71.8084 125.579 71.7953 125.318C74.8347 125.345 70.8682 126.876 71.7723 126.767L73.0084 126.486L72.7027 126.391C73.6199 125.71 73.6314 125.327 75.41 124.902C76.587 124.849 76.1563 125.474 76.6133 125.405C76.6314 125.491 76.7925 125.491 77.3086 125.264L79.9782 124.682L78.6631 124.044C79.6938 123.313 81.1075 123.436 79.6116 122.744C80.713 123.296 83.1129 122.53 85.3913 121.715C87.6219 120.78 89.6241 119.575 90.2553 119.582C90.5528 119.247 90.8651 118.953 91.1972 118.688C91.5161 118.397 91.8449 118.119 92.1983 117.864C92.9051 117.353 93.6974 116.9 94.5851 116.41C94.0476 116.505 93.2388 115.75 94.7692 114.973C95.0864 116.039 95.938 115.888 96.8799 115.383C97.8251 114.881 98.9297 114.165 99.9883 114.361C99.1565 114.329 100.128 113.522 100.983 112.733C101.836 111.934 102.461 111.037 101.259 111.148C102.452 110.31 101.857 111.718 103.024 111.36C104.011 109.825 105.641 108.762 107.109 107.337C108.608 105.956 110.384 104.621 111.515 102.727C111.324 102.499 110.545 102.804 110.757 101.804L113.293 100.826C113.671 100.024 112.458 99.2943 114.087 98.5055C113.768 98.5612 113.293 98.6383 113.512 98.102C116.374 94.9318 118.207 90.9121 119.607 86.8284C120.28 84.7669 121.082 82.7562 121.687 80.6733C122.032 79.6451 122.42 78.6249 122.872 77.6114C123.335 76.6011 123.664 75.5564 124.182 74.5347C123.449 75.6106 123.516 74.8201 123.63 73.9361C123.409 74.4904 122.926 73.8147 122.522 73.8672C122.522 73.8672 122.926 73.0209 123.33 72.1747C123.533 71.745 123.735 71.3153 123.888 70.9939C124.041 70.6691 124.105 70.4477 124.105 70.4477C123.058 69.6999 124.231 66.5756 123.209 66.1639L123.34 67.2972C122.188 65.7818 120.511 69.221 118.955 68.8503C119.283 69.2685 119.305 69.731 119.185 70.2247C119.035 70.7151 118.697 71.23 118.394 71.7712C117.779 72.8602 117.234 74.0197 118.023 75.4712C117.623 75.9665 117.597 74.8988 117.192 75.1284C117.796 75.8943 117.694 76.6881 117.046 78.0198L116.924 77.823C116.471 79.7959 116.098 81.2031 115.32 82.5266C114.962 83.1924 114.594 83.8731 114.181 84.6373C113.77 85.3967 113.367 86.256 112.738 87.2007L113.594 87.2155C113.075 88.0519 112.764 88.1322 112.391 88.4553C112.971 89.9658 113.64 86.0264 114.386 87.4729C113.374 87.7468 112.624 89.2819 111.873 90.7694C111.094 92.2389 110.111 93.5476 109.149 93.4558C108.372 94.7137 110.142 93.5558 109.358 94.8252L108.743 94.899L109.072 95.5649C108.487 96.3603 107.622 96.3603 107.285 96.1668C107.466 96.0077 107.591 95.5698 107.713 95.35C106.491 96.0142 105.758 98.2742 105.349 98.5137L106.435 97.5624C105.909 98.4251 105.349 99.3435 104.653 100.183C103.922 100.995 103.176 101.828 102.429 102.656L101.333 103.913C100.937 104.295 100.55 104.682 100.181 105.075C99.4409 105.863 98.7637 106.673 98.1933 107.526L98.6535 107.603C96.7549 110.089 96.482 108.777 94.0377 111.048L94.0854 110.904C93.7829 111.632 93.0942 112.224 92.2903 112.669C92.7753 111.873 90.4986 112.779 91.1857 111.806C88.766 114.097 90.1451 113.169 88.8761 115.411L88.1348 115.091C87.714 115.905 87.7863 116.192 86.3184 117.072C87.3441 116 84.9622 116.697 86.0537 115.406C85.1282 115.481 84.4214 115.732 83.8329 116.054C83.2329 116.344 82.7299 116.657 82.2844 116.966C81.3902 117.566 80.6603 118.027 79.6067 117.379C78.6319 119.527 82.7546 117.222 82.0313 117.871C82.9502 118.12 81.2028 119.513 80.0817 119.744C78.9952 120.152 77.5831 118.233 74.9333 118.973C75.2029 118.912 75.1914 118.783 75.4593 118.724C74.3547 118.52 73.6281 119.892 72.2177 119.345C71.6917 120.454 70.5756 119.536 70.5723 120.848L73.0791 120.164C71.7197 120.712 70.5476 122.427 68.0096 122.07C68.1723 121.781 68.8512 121.328 69.3148 121.063C68.5668 120.769 67.9964 121.566 67.2205 121.199C67.3027 119.962 70.2961 120.462 71.6687 119.275C70.8534 118.842 68.9252 120.644 69.4923 119.134C69.0698 120.103 68.3745 120.152 67.597 120.162C66.8046 120.101 65.9334 119.974 65.031 120.705L65.1099 119.923C64.8239 120.059 64.2255 120.457 63.6748 120.466L64.6151 119.408C63.1373 120.334 61.7187 118.862 60.305 119.19C61.7976 119.265 61.9669 119.491 61.9209 119.795C61.8749 120.106 61.602 120.503 62.2513 120.753C58.4311 121.684 60.1242 118.643 56.0114 118.803C56.5686 118.758 58.0694 119.378 57.162 119.705C56.3747 119.547 55.3719 119.086 54.9511 118.596C52.2257 118.342 55.2634 119.454 54.0421 119.752C53.2432 118.67 52.6416 119.929 51.3528 120.041L51.4892 119.262C49.9654 118.811 49.7074 119.024 49.4427 119.413C49.1912 119.76 48.9693 120.1 47.6329 119.441L49.0728 118.678L47.5605 118.581L48.0833 117.786C46.3737 117.996 45.8723 117.827 44.4833 117.026C44.6559 117.682 43.8439 118.319 42.4861 117.85C41.7349 117.076 43.2521 117.328 41.3272 116.748C41.937 116.443 42.6028 116.024 43.1666 117.005C43.3359 116.792 43.7452 116.69 43.9129 116.479C43.1387 115.619 41.5623 115.49 40.8867 115.254C41.1332 115.373 41.4242 115.524 41.5409 115.685C41.5409 115.685 40.765 115.69 39.9908 115.695C39.2281 115.631 38.467 115.567 38.467 115.567C38.1793 115.098 38.6083 115.04 39.0226 114.98C38.4653 114.807 37.9475 114.962 37.1388 114.648C37.622 114.166 37.8703 113.55 39.0653 113.789L36.3201 113.264C36.2758 112.948 35.444 111.975 35.8697 111.923C34.8308 110.816 32.089 111.142 30.6983 109.607C30.5454 109.648 30.3104 109.622 29.9175 109.441C29.2074 108.818 28.6402 108.105 27.9663 107.472C27.6326 107.152 27.2562 106.868 26.8436 106.594C26.4474 106.297 25.9921 106.038 25.4348 105.83L25.2819 104.134C23.8222 103.166 25.568 106.353 23.1072 104.715C21.3105 103.576 23.2173 103.503 22.9428 102.766C21.8661 102.44 19.7604 101.886 19.1883 99.8716C19.7735 100.191 19.9741 100.664 20.4327 101.039ZM9.11504 82.8218C9.4175 83.1646 10.1852 83.7632 9.85147 84.2142C8.83888 84.0895 9.1134 83.5795 9.11504 82.8218ZM5.96221 49.9112C6.13481 50.29 5.88495 50.7361 5.45263 51.215C5.49043 50.8034 5.63509 50.3573 5.96221 49.9112ZM82.4291 4.81185C82.4061 4.81677 82.3896 4.82005 82.3683 4.82989C81.4675 4.17387 81.7831 4.41988 82.4291 4.81185ZM84.3819 5.88935C84.6285 5.86311 84.6548 5.75487 84.6071 5.62039C84.3902 5.75323 83.9217 5.59742 83.4121 5.35142C83.4877 5.59906 83.703 5.83031 84.3819 5.88935ZM76.7826 125.063L76.3223 124.967C77.1936 124.508 76.9848 124.774 76.7826 125.063Z"/>
</mask>
<path d="M20.4327 101.039L19.9527 99.5649C21.9138 100.146 22.4398 101.266 22.2343 99.706C21.3647 100.359 20.3127 99.4452 19.4497 98.3792C18.5867 97.3131 17.7171 96.2537 16.7506 96.8211L16.5632 95.7928C16.7078 96.0208 16.841 95.9814 16.984 96.2061C16.7522 94.1512 14.8503 96.0159 13.8361 93.774C13.5435 92.9638 13.5205 92.3061 14.0448 92.6554L12.595 91.3401C12.3616 90.8481 12.761 90.7858 13.0043 91.2647C13.0043 91.2647 12.904 91.1171 12.7544 90.8973C12.6246 90.6661 12.452 90.3561 12.2794 90.0478C11.9325 89.4279 11.584 88.8096 11.584 88.8096L11.6514 88.7997C11.1632 88.5898 10.269 87.9846 9.85805 87.6648C9.83174 86.8743 10.2345 87.8994 10.4054 87.6156C10.4054 87.6156 9.19723 86.4069 9.23175 86.3872C9.38956 85.969 9.70681 86.0215 10.029 86.3003C10.3824 86.5676 10.7523 87.0547 10.9512 87.5615C11.6482 86.443 11.3802 86.2265 10.9183 85.8411C10.5024 85.4459 9.89585 84.8636 9.96654 83.1662L10.7326 84.4389C11.5923 83.1072 10.7802 82.215 10.9693 80.4634C10.6997 80.9112 10.2197 84.1699 9.1134 82.7775C9.1134 82.2675 8.95066 81.6656 8.23231 80.9243C8.98847 80.6815 8.58409 79.8779 8.2619 78.807L9.2975 78.6069C8.70902 77.5376 8.21094 77.7557 7.57314 77.1752C7.33315 75.8402 8.05314 75.4105 8.69587 74.9693C8.54628 72.8422 7.63396 76.6799 7.06027 74.2067C7.12438 73.2834 7.00274 72.5355 6.74466 71.7548C6.49316 70.9725 6.05097 70.164 5.72714 69.098C6.02796 67.8024 6.37974 69.2685 6.65754 68.7913L5.76495 67.7302C5.77153 67.453 6.03289 67.5285 6.1644 67.5662C5.79125 66.6363 5.11071 67.5481 4.74907 66.0459C4.17538 65.8573 4.50579 65.0569 4.93154 64.1041C5.38523 63.1446 5.82741 62.0475 5.21756 61.0815C5.5381 60.642 5.85043 61.3406 6.26303 61.2225C5.52824 58.6378 5.69098 59.0216 4.87894 56.7944L5.83399 55.115C4.85592 56.2975 4.18525 54.4935 3.66745 52.8108C3.22033 53.2175 2.82746 53.575 2.62856 53.826C2.62856 53.826 2.58417 53.1831 2.54143 52.5402C2.5102 51.8973 2.55294 51.2626 2.55294 51.2626C2.79622 51.0051 3.08553 51.3331 3.4143 51.8169C3.37156 51.6349 3.32718 51.461 3.28115 51.3233C3.88114 50.5492 4.3562 51.1412 4.77537 51.8645L3.92224 52.5779C4.45647 53.3044 5.06962 53.9768 5.69427 53.967C5.59728 53.7932 5.53975 53.4799 5.53153 53.1453C5.67783 53.3307 5.81591 53.457 5.93098 53.4078C6.06084 53.352 5.83563 53.0584 5.6844 52.6304L6.96493 52.3598L6.54247 52.1351L8.01369 49.3634C7.86574 48.7599 7.67342 48.1531 7.49589 47.5299C7.36274 46.9198 7.23123 46.2867 7.13589 45.6143C6.96658 44.2777 6.86466 42.7311 7.36274 40.9615C7.76054 42.1112 8.57094 41.6831 9.48326 42.1325C8.11067 42.6048 8.96381 44.85 8.13204 46.4442C8.56436 45.5963 8.95066 45.9538 9.02792 46.2293L9.21202 42.8754C9.95174 43.2576 10.0093 42.4671 10.7145 41.8685C8.93093 41.7783 10.7621 39.2559 10.8887 37.829C11.4114 38.0127 11.778 38.5572 10.966 39.9316C12.8481 38.9377 10.1753 36.9451 12.0591 35.9545C11.8651 36.2989 11.6794 36.4399 11.8438 36.7105C11.898 35.6806 13.412 33.9438 13.5402 34.6539L13.3462 34.9934C13.7259 34.4637 14.1714 33.7782 14.612 33.0303C15.0821 32.3005 15.6262 31.5592 16.0486 30.813C16.9199 29.3419 17.4459 27.9183 17.0678 27.341C17.2223 27.4378 18.1297 28.6694 18.2661 28.9761C18.2661 28.9761 18.202 28.5563 18.1692 27.9593C18.133 27.3443 18.0853 26.5259 18.0377 25.7075C17.9604 24.0478 17.9538 22.311 17.9538 22.311C18.5472 23.441 21.654 24.2676 20.7039 26.3226C21.2628 26.0028 21.8414 25.5255 22.499 24.3578C22.0683 24.5054 20.5001 23.8494 20.8469 23.3672C22.9724 23.2426 22.185 23.1196 24.3959 22.6505C23.7581 22.8834 23.0151 21.017 23.8239 20.3643C23.8896 20.6841 25.0962 21.7141 24.9565 22.106C24.9565 22.106 25.1176 21.3368 25.2787 20.566C25.4611 19.8083 25.6978 19.0802 25.6978 19.0802C25.3954 19.7198 26.5921 20.3627 27.3531 20.4496C26.9258 20.3151 29.0775 19.2064 29.4934 18.6652L28.4035 18.9457C30.769 17.4762 29.2156 15.2048 31.7553 13.7484C31.6419 14.2617 32.2468 16.1953 33.5684 15.6623C33.6177 15.1047 33.6358 13.6828 34.0057 12.2757C34.3706 10.8718 35.0314 9.35147 36.0933 8.43797L36.7804 8.70857C36.7804 8.70857 37.1799 8.34613 37.5809 7.98368C37.982 7.61795 38.4176 7.3211 38.4176 7.3211C38.0642 8.15916 37.4264 9.73851 36.7574 11.2375C36.09 12.7529 35.4029 14.2191 34.8867 15.131C36.0193 15.0408 35.4473 15.5639 36.8182 14.8472C37.5333 15.067 36.4122 15.8936 36.0243 16.1101L39.3563 14.8735C39.0571 14.4061 39.5552 13.8583 40.0779 13.3236C40.622 12.8447 41.1973 12.3987 40.9623 11.9936C40.9623 11.9936 40.7568 12.1444 40.4461 12.3708C40.1321 12.584 39.7311 12.9005 39.353 13.2613C38.5919 13.9452 37.8308 14.6291 37.8308 14.6291C37.5201 14.1683 37.6878 13.2187 38.273 12.2478C38.8352 11.2359 39.8889 10.3568 41.1875 10.0026C41.9732 10.183 41.411 12.0116 41.605 12.3314C41.776 11.8673 43.6598 10.8095 43.9688 10.9817L43.1354 11.9148C43.8718 11.8656 44.2959 11.3211 44.7956 10.8324C45.2954 10.3584 45.9003 10.0304 46.8751 10.3125C47.4816 10.2305 48.9348 11.2506 48.8756 10.5913C47.6657 9.60403 46.451 5.89591 46.9145 4.80201C47.0362 4.81513 47.9386 4.89385 48.897 5.02833C49.8504 5.12837 50.9008 5.49738 51.3051 5.72371C52.4788 6.54373 50.2153 8.2674 51.2295 8.96934C51.2082 8.66757 51.6849 8.21984 51.892 8.06732C52.5643 8.2264 51.7934 9.02674 53.1232 8.68561C53.1824 7.54743 55.9062 8.35596 53.6295 7.65239C54.9363 7.16366 55.0793 7.58679 56.659 7.44903C56.0706 6.75529 57.8985 4.92829 59.3302 4.53468C59.2579 4.82333 59.5916 5.17758 59.7478 5.3383C60.4661 5.32682 61.1006 5.3465 61.6891 5.37766C62.2776 5.44982 62.8201 5.56462 63.3543 5.65811C64.4228 5.85327 65.4584 6.03531 66.7816 6.10584C67.0068 6.37808 68.2364 6.79465 67.6512 7.22926C68.0408 7.08166 68.4254 6.76185 69.2309 6.85697C70.6462 8.05092 67.4392 6.73397 68.4731 8.06896C68.6441 7.43919 70.6265 7.49003 71.8397 7.26534C71.6572 6.22228 69.2063 6.67001 68.0359 6.89961C68.1624 5.52198 70.3652 4.38872 73.3717 4.20175C75.7092 4.27883 74.1624 5.2809 74.598 5.15133C76.6412 5.79915 77.6719 5.43998 78.622 5.15789C79.5672 4.87253 80.4434 4.63308 81.9869 5.76635C83.0439 7.08986 81.4675 7.44246 81.5579 8.1526C80.6439 8.00336 80.039 7.61303 79.4916 7.25386C78.9343 6.92749 78.4527 6.58309 77.8429 6.44368L79.2105 7.22598C78.5596 7.3621 77.33 7.27518 76.753 6.86353C77.685 7.79999 83.5305 8.9923 86.1227 11.0883C86.754 11.0653 87.7813 11.2178 87.5118 10.6947L86.5353 10.3617C85.9699 9.30062 88.7101 10.3158 87.6663 9.44495C88.406 9.52203 89.2246 9.55975 90.0662 9.73359C90.4871 9.82052 90.9145 9.94024 91.3336 10.119C91.7347 10.3322 92.1309 10.6028 92.5106 10.9489L92.3265 12.0132C92.4416 11.741 91.5144 10.8177 90.8865 10.8045C91.835 10.8455 92.7835 13.5418 94.2415 12.8825L93.4114 11.5639C94.8629 11.8935 97.0738 11.8328 98.31 13.2433C98.2146 11.9411 97.9237 13.0826 97.5209 11.3654C97.6787 13.1514 93.5511 8.87914 94.2908 11.1079C93.8355 9.29899 92.675 9.36459 91.6394 7.59335C91.5342 7.91152 91.9024 8.42485 90.589 7.60975C90.4821 7.66551 90.2799 7.70487 90.1534 7.72455C90.1172 7.69503 90.1024 7.68355 90.0712 7.65731L90.1304 7.72947C90.0482 7.74587 90.0383 7.75243 90.1534 7.75407C90.4164 8.04436 90.6038 8.32644 90.6268 8.54293C89.5961 8.89062 87.4559 7.83607 86.5699 7.85083C85.8301 7.3211 87.0581 7.66223 86.7622 7.12758C86.7622 7.12758 86.4301 7.1325 86.0981 7.13742C85.7578 7.16858 85.4192 7.1981 85.4192 7.1981C85.6 6.4814 83.6192 5.23334 85.794 5.57282L83.9874 4.87581C83.0587 4.10663 81.6203 3.37682 80.6028 3.38502C79.7546 2.99961 78.1404 3.59166 79.0675 3.23413L76.0199 2.92417L76.0347 2.73884C74.6078 2.26159 73.0133 2.40591 71.4336 2.29931C69.8441 2.22715 68.2627 1.89586 66.6025 1.21197C65.5817 1.34481 64.5428 1.5203 62.8727 1.23001L62.5538 0.577275C61.2667 0.715038 58.625 0.086903 58.0957 0.747838C57.7209 0.337829 57.1308 0.129544 56.419 0.0475421C55.7073 -0.0508601 54.8788 0.00490251 54.0404 0.201707C52.3523 0.537914 50.6016 1.06929 49.4328 1.09717L49.5068 1.92702C47.9518 2.15991 46.5512 2.84052 44.7611 3.62118L45.0734 4.30016C43.6285 5.19562 40.8834 5.07753 38.4176 6.05008C38.4801 5.72699 39.1376 5.56298 39.6406 5.56134C38.7563 5.44162 37.9393 5.6007 37.1766 5.90083C36.4319 6.24196 35.7612 6.76841 35.1021 7.27682C33.8002 8.33464 32.5443 9.28587 31.0419 9.50235C30.5668 10.1026 30.0868 10.2863 29.5657 10.3863C29.6216 10.3502 29.6643 10.3076 29.6956 10.2617C29.6298 10.2928 29.5361 10.347 29.4408 10.4044C29.1071 10.4585 28.7537 10.5011 28.3904 10.5831C28.7405 10.5799 29.0611 10.5569 29.3076 10.488C28.8474 10.7849 28.1849 11.2933 27.5931 11.8689L26.8633 11.3884C26.8107 11.4294 26.7696 11.4622 26.7137 11.5048C25.8622 11.6836 26.3734 12.1494 27.0671 12.4233C26.7827 12.7283 26.5888 13.1022 26.4638 13.4237C25.2096 12.7677 25.0337 15.0244 23.5132 14.4618C23.4951 14.8899 22.757 15.5967 22.0979 16.361C21.493 17.1925 20.9735 18.083 21.2825 18.7456C21.1412 18.6275 20.911 18.7194 21.2201 18.4225C20.4623 18.8948 19.693 19.3786 19.379 20.1954L18.3977 19.7329C18.3977 19.7329 18.2744 20.3003 18.1527 20.8694C18.0689 21.4599 17.9834 22.0519 17.9834 22.0519C16.7604 22.4849 16.1538 22.621 16.3922 21.2122C15.3517 24.1315 15.138 23.2262 14.4591 25.7797L14.0268 25.2746C13.5254 25.9831 13.3988 27.6018 12.664 27.6871C10.3479 28.4038 7.17863 35.392 4.20497 39.492C5.29975 39.4445 4.82962 39.866 4.3036 40.4252C3.80717 40.9976 3.20225 41.7045 3.86142 42.0636C3.34033 42.1686 2.85705 42.7393 2.77157 41.8357C2.33431 44.3925 0.670774 45.2355 1.48775 47.3249C0.976523 47.4856 0.98803 46.6114 0.662555 46.7886C0.705294 47.0182 0.836799 47.6889 0.508037 47.8776C0.182562 48.0629 0.235163 47.4118 0.149685 46.9575C-0.447019 49.5668 0.851593 50.1392 2.08117 50.6115C1.61925 51.1675 1.36446 51.6136 1.30857 52.0531C1.29214 52.4992 1.46309 52.9387 1.81651 53.4734C1.3283 53.8358 0.769403 54.5148 0.861457 52.9059C0.675706 53.7702 -0.626194 58.2836 0.468585 58.4787C0.187493 58.733 0.325574 59.7219 0.43571 59.9646C0.271328 61.9622 0.167767 62.1393 0.169411 64.109L0.366668 63.5661C1.56008 64.3501 0.644473 65.1849 0.872963 66.7626L0.741459 66.7232C0.374888 68.5502 0.50475 68.9455 0.618173 69.321C0.774335 69.6982 0.72502 70.0705 0.514612 71.9041L1.26912 71.6187C3.0017 71.7171 0.74639 74.8676 1.71953 76.8422L2.04171 76.0173C2.75184 76.9898 0.539269 79.5844 0.608309 80.8226C0.529406 81.1096 0.277902 80.4913 0.0839325 80.1682C-0.10675 83.4319 1.182 80.2961 1.98254 82.4282C1.57158 82.994 0.448859 82.315 0.817073 83.8304C0.734882 84.265 1.55515 85.1949 2.35075 86.2741C3.17923 87.345 3.84826 88.6144 3.86142 89.7542C4.05374 89.1622 4.25429 88.5931 5.00222 89.4049C5.8455 90.7399 5.3918 94.0905 7.33972 94.7039C7.34301 94.9367 7.28548 95.0581 7.19671 95.1171C8.1419 96.0044 9.7775 98.2431 10.7671 98.4546C9.92708 99.6847 11.3917 101.034 12.7166 102.223C14.012 103.449 15.3895 104.354 14.4394 105.161L17.0925 107.872L16.841 107.977C18.4026 109.855 19.5467 109.914 20.5428 110.056C20.8387 110.555 20.3834 110.458 20.2601 110.524C22.4957 113.31 23.0184 113.345 26.0693 114.114L25.8392 114.958C26.2945 115.009 27.1099 116.049 28.3789 117.067C29.6364 118.084 31.1635 119.404 32.9684 119.711C32.8944 119.778 32.7564 119.887 32.4523 119.869C34.4544 120.262 36.2577 121.894 38.0741 122.911C39.8856 123.91 41.5425 124.577 42.6653 123.411C42.6653 123.411 43.3162 123.486 43.9935 123.447C44.6609 123.431 45.3266 123.414 45.3266 123.414C42.2264 122.379 46.1501 122.299 44.9929 121.495C46.2406 121.637 47.9222 123.168 46.3737 122.929L46.1781 122.721C45.2214 124.051 49.9654 124.297 49.6843 125.225C56.0886 126.396 62.4896 127.359 68.7049 126.87C68.7049 126.87 68.4978 126.598 68.289 126.327C68.0835 126.043 67.8781 125.761 67.8781 125.761C67.8813 125.806 69.9887 125.533 69.9887 125.533C70.5756 125.725 70.8665 126.35 69.3361 126.532C70.2304 127.085 71.8084 125.579 71.7953 125.318C74.8347 125.345 70.8682 126.876 71.7723 126.767L73.0084 126.486L72.7027 126.391C73.6199 125.71 73.6314 125.327 75.41 124.902C76.587 124.849 76.1563 125.474 76.6133 125.405C76.6314 125.491 76.7925 125.491 77.3086 125.264L79.9782 124.682L78.6631 124.044C79.6938 123.313 81.1075 123.436 79.6116 122.744C80.713 123.296 83.1129 122.53 85.3913 121.715C87.6219 120.78 89.6241 119.575 90.2553 119.582C90.5528 119.247 90.8651 118.953 91.1972 118.688C91.5161 118.397 91.8449 118.119 92.1983 117.864C92.9051 117.353 93.6974 116.9 94.5851 116.41C94.0476 116.505 93.2388 115.75 94.7692 114.973C95.0864 116.039 95.938 115.888 96.8799 115.383C97.8251 114.881 98.9297 114.165 99.9883 114.361C99.1565 114.329 100.128 113.522 100.983 112.733C101.836 111.934 102.461 111.037 101.259 111.148C102.452 110.31 101.857 111.718 103.024 111.36C104.011 109.825 105.641 108.762 107.109 107.337C108.608 105.956 110.384 104.621 111.515 102.727C111.324 102.499 110.545 102.804 110.757 101.804L113.293 100.826C113.671 100.024 112.458 99.2943 114.087 98.5055C113.768 98.5612 113.293 98.6383 113.512 98.102C116.374 94.9318 118.207 90.9121 119.607 86.8284C120.28 84.7669 121.082 82.7562 121.687 80.6733C122.032 79.6451 122.42 78.6249 122.872 77.6114C123.335 76.6011 123.664 75.5564 124.182 74.5347C123.449 75.6106 123.516 74.8201 123.63 73.9361C123.409 74.4904 122.926 73.8147 122.522 73.8672C122.522 73.8672 122.926 73.0209 123.33 72.1747C123.533 71.745 123.735 71.3153 123.888 70.9939C124.041 70.6691 124.105 70.4477 124.105 70.4477C123.058 69.6999 124.231 66.5756 123.209 66.1639L123.34 67.2972C122.188 65.7818 120.511 69.221 118.955 68.8503C119.283 69.2685 119.305 69.731 119.185 70.2247C119.035 70.7151 118.697 71.23 118.394 71.7712C117.779 72.8602 117.234 74.0197 118.023 75.4712C117.623 75.9665 117.597 74.8988 117.192 75.1284C117.796 75.8943 117.694 76.6881 117.046 78.0198L116.924 77.823C116.471 79.7959 116.098 81.2031 115.32 82.5266C114.962 83.1924 114.594 83.8731 114.181 84.6373C113.77 85.3967 113.367 86.256 112.738 87.2007L113.594 87.2155C113.075 88.0519 112.764 88.1322 112.391 88.4553C112.971 89.9658 113.64 86.0264 114.386 87.4729C113.374 87.7468 112.624 89.2819 111.873 90.7694C111.094 92.2389 110.111 93.5476 109.149 93.4558C108.372 94.7137 110.142 93.5558 109.358 94.8252L108.743 94.899L109.072 95.5649C108.487 96.3603 107.622 96.3603 107.285 96.1668C107.466 96.0077 107.591 95.5698 107.713 95.35C106.491 96.0142 105.758 98.2742 105.349 98.5137L106.435 97.5624C105.909 98.4251 105.349 99.3435 104.653 100.183C103.922 100.995 103.176 101.828 102.429 102.656L101.333 103.913C100.937 104.295 100.55 104.682 100.181 105.075C99.4409 105.863 98.7637 106.673 98.1933 107.526L98.6535 107.603C96.7549 110.089 96.482 108.777 94.0377 111.048L94.0854 110.904C93.7829 111.632 93.0942 112.224 92.2903 112.669C92.7753 111.873 90.4986 112.779 91.1857 111.806C88.766 114.097 90.1451 113.169 88.8761 115.411L88.1348 115.091C87.714 115.905 87.7863 116.192 86.3184 117.072C87.3441 116 84.9622 116.697 86.0537 115.406C85.1282 115.481 84.4214 115.732 83.8329 116.054C83.2329 116.344 82.7299 116.657 82.2844 116.966C81.3902 117.566 80.6603 118.027 79.6067 117.379C78.6319 119.527 82.7546 117.222 82.0313 117.871C82.9502 118.12 81.2028 119.513 80.0817 119.744C78.9952 120.152 77.5831 118.233 74.9333 118.973C75.2029 118.912 75.1914 118.783 75.4593 118.724C74.3547 118.52 73.6281 119.892 72.2177 119.345C71.6917 120.454 70.5756 119.536 70.5723 120.848L73.0791 120.164C71.7197 120.712 70.5476 122.427 68.0096 122.07C68.1723 121.781 68.8512 121.328 69.3148 121.063C68.5668 120.769 67.9964 121.566 67.2205 121.199C67.3027 119.962 70.2961 120.462 71.6687 119.275C70.8534 118.842 68.9252 120.644 69.4923 119.134C69.0698 120.103 68.3745 120.152 67.597 120.162C66.8046 120.101 65.9334 119.974 65.031 120.705L65.1099 119.923C64.8239 120.059 64.2255 120.457 63.6748 120.466L64.6151 119.408C63.1373 120.334 61.7187 118.862 60.305 119.19C61.7976 119.265 61.9669 119.491 61.9209 119.795C61.8749 120.106 61.602 120.503 62.2513 120.753C58.4311 121.684 60.1242 118.643 56.0114 118.803C56.5686 118.758 58.0694 119.378 57.162 119.705C56.3747 119.547 55.3719 119.086 54.9511 118.596C52.2257 118.342 55.2634 119.454 54.0421 119.752C53.2432 118.67 52.6416 119.929 51.3528 120.041L51.4892 119.262C49.9654 118.811 49.7074 119.024 49.4427 119.413C49.1912 119.76 48.9693 120.1 47.6329 119.441L49.0728 118.678L47.5605 118.581L48.0833 117.786C46.3737 117.996 45.8723 117.827 44.4833 117.026C44.6559 117.682 43.8439 118.319 42.4861 117.85C41.7349 117.076 43.2521 117.328 41.3272 116.748C41.937 116.443 42.6028 116.024 43.1666 117.005C43.3359 116.792 43.7452 116.69 43.9129 116.479C43.1387 115.619 41.5623 115.49 40.8867 115.254C41.1332 115.373 41.4242 115.524 41.5409 115.685C41.5409 115.685 40.765 115.69 39.9908 115.695C39.2281 115.631 38.467 115.567 38.467 115.567C38.1793 115.098 38.6083 115.04 39.0226 114.98C38.4653 114.807 37.9475 114.962 37.1388 114.648C37.622 114.166 37.8703 113.55 39.0653 113.789L36.3201 113.264C36.2758 112.948 35.444 111.975 35.8697 111.923C34.8308 110.816 32.089 111.142 30.6983 109.607C30.5454 109.648 30.3104 109.622 29.9175 109.441C29.2074 108.818 28.6402 108.105 27.9663 107.472C27.6326 107.152 27.2562 106.868 26.8436 106.594C26.4474 106.297 25.9921 106.038 25.4348 105.83L25.2819 104.134C23.8222 103.166 25.568 106.353 23.1072 104.715C21.3105 103.576 23.2173 103.503 22.9428 102.766C21.8661 102.44 19.7604 101.886 19.1883 99.8716C19.7735 100.191 19.9741 100.664 20.4327 101.039ZM9.11504 82.8218C9.4175 83.1646 10.1852 83.7632 9.85147 84.2142C8.83888 84.0895 9.1134 83.5795 9.11504 82.8218ZM5.96221 49.9112C6.13481 50.29 5.88495 50.7361 5.45263 51.215C5.49043 50.8034 5.63509 50.3573 5.96221 49.9112ZM82.4291 4.81185C82.4061 4.81677 82.3896 4.82005 82.3683 4.82989C81.4675 4.17387 81.7831 4.41988 82.4291 4.81185ZM84.3819 5.88935C84.6285 5.86311 84.6548 5.75487 84.6071 5.62039C84.3902 5.75323 83.9217 5.59742 83.4121 5.35142C83.4877 5.59906 83.703 5.83031 84.3819 5.88935ZM76.7826 125.063L76.3223 124.967C77.1936 124.508 76.9848 124.774 76.7826 125.063Z" stroke="url(#paint0_linear)" stroke-width="4" mask="url(#path-58-inside-1)"/>
<path d="M0.450405 -3.50349e-07C0.300818 0.0951217 0.15123 0.100042 -4.26404e-07 0.101682C0.105204 0.291927 0.256435 0.323087 0.450405 -3.50349e-07Z" transform="translate(5.69434 53.8719)" fill="#4577F0"/>
<path d="M-1.25413e-06 0.0327962L0.0460253 0.078717C0.101915 0.0606766 0.144656 0.0328017 0.179176 1.001e-06L-1.25413e-06 0.0327962Z" transform="translate(30.6442 109.528)" fill="#4577F0"/>
<path d="M0.846562 0.285366C0.42739 0.232884 0.177531 0.126282 -5.51817e-07 -3.50349e-07C0.01315 0.191884 0.226845 0.326366 0.846562 0.285366Z" transform="translate(51.236 8.97589)" fill="#4577F0"/>
<path d="M1.33313 0.567452L4.01322e-07 -1.47647e-06C0.613143 0.324726 0.73478 0.601894 0.966558 0.89054C1.03724 0.716696 0.9419 0.344407 1.33313 0.567452Z" transform="translate(94.1677 9.33673)" fill="#4577F0"/>
<path d="M0.196725 0.453895C0.407133 0.512936 0.509052 0.722861 0.717816 0.778622L0.93152 0.475216C0.297008 -0.0676355 -0.329295 -0.23492 0.196725 0.453895Z" transform="translate(101.881 20.5615)" fill="#4577F0"/>
<path d="M0.0534488 -5.00499e-08C-0.230931 0.639614 0.673178 0.816737 1.49344 1.32187C1.44577 1.28907 1.3981 1.26119 1.357 1.22019C2.12302 0.618293 1.11535 0.246005 0.0534488 -5.00499e-08Z" transform="translate(95.153 12.8021)" fill="#4577F0"/>
<path d="M4.01321e-07 -9.50949e-07C0.254791 0.150882 0.507944 0.318167 0.721639 0.516611C1.03068 0.282086 0.476706 0.236164 4.01321e-07 -9.50949e-07Z" transform="translate(96.8389 14.2388)" fill="#4577F0"/>
<path d="M0.83358 0.626283C1.18864 0.985451 1.44507 -0.0248097 1.57822 0.339278C2.39848 -0.231454 -1.68967 -0.0461314 0.83358 0.626283Z" transform="translate(86.3151 5.88464)" fill="#4577F0"/>
<path d="M0.644369 0.859379L0.812046 -2.25225e-07L-2.50826e-06 0.282087L0.644369 0.859379Z" transform="translate(94.0132 14.1748)" fill="#4577F0"/>
<path d="M2.50826e-06 0.0528465L1.24765 0.905666C1.29203 0.774463 1.5008 0.785942 1.74244 0.833503C0.920534 0.407094 0.0756179 -0.180039 2.50826e-06 0.0528465Z" transform="translate(88.5471 10.8074)" fill="#4577F0"/>
<path d="M-6.01982e-07 -3.50349e-07C0.422459 0.232885 0.810403 0.477252 1.11122 0.492012C0.879443 0.37065 0.396158 0.0820015 -6.01982e-07 -3.50349e-07Z" transform="translate(90.2881 11.641)" fill="#4577F0"/>
<path d="M1.15232 0.969261L0.866288 0.595332L-2.00661e-06 8.00799e-07L1.15232 0.969261Z" transform="translate(91.6377 13.2219)" fill="#4577F0"/>
<path d="M1.72082 0.0164L0.055639 -7.75774e-07C-0.154769 0.252565 0.256186 0.490371 0.87426 0.470691C1.29508 0.334568 1.91808 0.321447 1.72082 0.0164Z" transform="translate(71.6146 5.4859)" fill="#4577F0"/>
<path d="M0.82684 0.775737C0.458626 0.505131 0.478352 0.321448 0.312327 4.75474e-07L-1.50496e-06 0.9709L0.82684 0.775737Z" transform="translate(76.7283 8.06897)" fill="#4577F0"/>
<path d="M1.24265 6.88186e-07C1.02567 0.252566 -1.14909 0.45921 0.815263 0.690455C1.02403 0.418209 2.61852 0.488731 1.24265 6.88186e-07Z" transform="translate(71.7855 7.96887)" fill="#4577F0"/>
<path d="M0.00985977 1.73516L0.404378 1.62036L2.3076e-06 1.37637e-07L0.00985977 1.73516Z" transform="translate(49.1418 5.2251)" fill="#4577F0"/>
<path d="M0.546672 1.69605C2.28418 1.11548 0.355988 0.607067 2.00966 0.190498C2.16911 -0.368755 0.655165 0.533266 0.845847 0.0182946C0.129145 0.939995 -0.482355 1.03347 0.546672 1.69605Z" transform="translate(31.1691 16.8364)" fill="#4577F0"/>
<path d="M1.27921e-06 0.506772C0.115068 0.359169 0.233423 0.195165 0.348489 1.02602e-06C0.129862 0.254207 0.0427404 0.40017 1.27921e-06 0.506772Z" transform="translate(32.015 16.3478)" fill="#4577F0"/>
<path d="M0.189045 1.30383L0.604927 6.00599e-07L-2.80925e-06 0.826575L0.189045 1.30383Z" transform="translate(124.904 66.774)" fill="#4577F0"/>
<path d="M4.81586e-06 1.07915L1.08163 0.788856L0.154514 0C0.18739 0.291926 0.251508 0.86102 4.81586e-06 1.07915Z" transform="translate(123.977 64.4517)" fill="#4577F0"/>
<path d="M0.430258 0.0131178L0.162316 -1.55155e-06C-0.0612424 0.244364 -0.0152161 0.505133 0.071906 1.02994L0.430258 0.0131178Z" transform="translate(9.76501 79.158)" fill="#4577F0"/>
<path d="M0.675606 0.236161L0.557254 2.002e-07L1.75578e-07 0.938098L0.675606 0.236161Z" transform="translate(15.0082 93.1064)" fill="#4577F0"/>
<path d="M1.24272 1.07422C0.87122 0.71833 0.313967 0.418205 -1.37954e-06 -3.80379e-06C0.848206 0.733092 0.516157 2.0156 1.24272 1.07422Z" transform="translate(23.3785 101.405)" fill="#4577F0"/>
<defs>
<linearGradient id="paint0_linear" x2="1" gradientUnits="userSpaceOnUse" gradientTransform="matrix(-132.5 -152 148.627 -129.56 69.1864 216.78)">
<stop stop-color="#00CCC0"/>
<stop offset="1" stop-color="#5C59FF"/>
</linearGradient>
</defs>
</svg>
