<svg width="24" height="18" viewBox="0 0 24 18" fill="none" xmlns="http://www.w3.org/2000/svg">
<path d="M16.3401 3.36846H2.29119L4.25874 1.24373C4.52298 0.958386 4.52208 0.49669 4.25675 0.212517C3.99138 -0.0717039 3.5621 -0.0706832 3.2979 0.214656L0.197618 3.56265C0.0634169 3.70761 -0.00203404 3.89801 0.00049721 4.08764C0.000406808 4.09099 0 4.09425 0 4.0976C0 4.35042 0.119737 4.57306 0.301445 4.70387L3.2979 7.93972C3.56219 8.22506 3.99142 8.22598 4.25675 7.94186C4.52208 7.65769 4.52298 7.19599 4.25874 6.91065L2.32902 4.82675H16.3401C19.3435 4.82675 21.7868 7.4544 21.7868 10.6842C21.7868 13.9141 19.3435 16.5417 16.3401 16.5417H0.678014C0.303569 16.5417 0 16.8682 0 17.2709C0 17.6735 0.303569 18 0.678014 18H16.3401C20.0912 18 23.1429 14.7182 23.1429 10.6842C23.1429 6.6503 20.0912 3.36846 16.3401 3.36846Z" transform="translate(23.2881 17.9999) rotate(-180)" fill="#787878"/>
</svg>
