<svg width="24" height="27" viewBox="0 0 24 27" fill="none" xmlns="http://www.w3.org/2000/svg">
<path d="M22.4041 4.65022L14.213 0.18678C13.436 -0.236758 12.3676 0.0890408 11.9467 0.870957L7.15507 9.83042H1.32741C0.582766 9.83042 3.58162e-08 10.4169 3.58162e-08 11.1662V13.5119V25.6642C3.58162e-08 26.4136 0.582766 27 1.32741 27H19.9435C20.6882 27 21.2709 26.4136 21.2709 25.6642V22.2759H21.8213C22.1127 22.2759 22.3393 22.0479 22.3393 21.7546V17.8776C22.3393 17.5844 22.1127 17.3564 21.8213 17.3564H21.2709V13.5445C21.2709 12.9255 20.8177 12.3716 20.2349 12.2413L23.084 6.93081C23.5049 6.11631 23.2135 5.10634 22.4041 4.65022ZM16.5764 2.66285L11.4611 12.2087H10.0041L15.4757 2.07641L16.5764 2.66285ZM12.8856 1.35966C13.0475 1.06644 13.436 0.936117 13.7274 1.09902L14.5368 1.55513L8.83861 12.2087H7.05794L12.8856 1.35966ZM1.00365 11.1336C1.00365 11.0359 1.13316 10.873 1.29503 10.873H6.5723L5.86003 12.1762H1.29503C1.19791 12.1762 1.10078 12.1762 1.00365 12.2087V11.1336ZM20.2025 25.6642C20.2025 25.8271 20.073 25.9574 19.9112 25.9574H1.29503C1.13316 25.9574 1.00365 25.8271 1.00365 25.6642V13.5445C1.00365 13.3816 1.13316 13.2513 1.29503 13.2513H6.18379H8.25585H12.0438H19.3284H19.8788C20.0407 13.2513 20.1702 13.3816 20.1702 13.5445V17.3564H18.1952C17.3211 17.3564 16.6412 18.0731 16.6412 18.9202V20.7121C16.6412 21.5917 17.3535 22.2759 18.1952 22.2759H20.2025V25.6642ZM21.2386 18.3989H21.2709V21.2334H21.2386H18.1952C17.9039 21.2334 17.6772 21.0053 17.6772 20.7121V18.9202C17.6772 18.627 17.9039 18.3989 18.1952 18.3989H21.2386ZM22.1451 6.40953L19.037 12.2087H12.6266L17.483 3.18413L21.8861 5.59504C22.2098 5.72536 22.307 6.11631 22.1451 6.40953Z" transform="translate(0.000488281)" fill="#787878"/>
<path d="M2.62659 0.29196L2.36758 0.16164C1.72006 -0.196738 0.845913 0.0639003 0.489779 0.715497L0.16602 1.33451C0.00414069 1.66031 -0.0606108 2.05127 0.0688927 2.40965C0.16602 2.76803 0.425027 3.06125 0.748785 3.22415L1.00779 3.35447C1.20205 3.45221 1.42868 3.51736 1.65531 3.51736C2.17332 3.51736 2.62659 3.22415 2.88559 2.80061L3.20935 2.18159C3.53311 1.49741 3.2741 0.650338 2.62659 0.29196ZM2.27045 1.69289L1.94669 2.31191C1.84956 2.47481 1.62293 2.53997 1.46105 2.44223L1.20205 2.27933C1.1373 2.24675 1.07254 2.14901 1.04017 2.08385C1.00779 1.98611 1.00779 1.88837 1.07254 1.82321L1.3963 1.2042C1.46105 1.10646 1.59056 1.00872 1.72006 1.00872C1.78481 1.00872 1.81719 1.00872 1.88194 1.0413L2.14095 1.17162C2.27045 1.30193 2.3352 1.49741 2.27045 1.69289Z" transform="translate(17.5439 5.62878)" fill="#787878"/>
</svg>
