<svg width="56" height="74" viewBox="0 0 56 74" fill="none" xmlns="http://www.w3.org/2000/svg">
<path d="M55.2432 18.1224C45.6461 18.1224 37.8378 10.3313 37.8378 0.755102C37.8378 0.338286 37.4988 0 37.0811 0H18.9189C18.5012 0 18.1622 0.338286 18.1622 0.755102C18.1622 10.3313 10.3539 18.1224 0.756757 18.1224C0.339027 18.1224 0 18.4607 0 18.8776V37C0 53.8735 26.432 73.0516 27.5581 73.8596C27.6897 73.9532 27.8441 74 28 74C28.1559 74 28.3103 73.9532 28.4419 73.858C29.5665 73.0501 56 53.8735 56 37V18.8776C56 18.4607 55.661 18.1224 55.2432 18.1224ZM54.4865 37C54.4865 51.951 31.4992 69.6944 28 72.3055C24.5008 69.6929 1.51351 51.9556 1.51351 37V19.6175C11.3453 19.2294 19.2716 11.319 19.6605 1.5102H36.3395C36.7284 11.3205 44.6547 19.2294 54.4865 19.6175V37Z" fill="#305DFF"/>
<path d="M18.9189 9.06122H10.5946V0.755102C10.5946 0.338286 10.2556 0 9.83784 0C9.42011 0 9.08108 0.338286 9.08108 0.755102V9.06122H0.756757C0.339027 9.06122 0 9.39951 0 9.81633C0 10.2331 0.339027 10.5714 0.756757 10.5714H9.08108V18.8776C9.08108 19.2944 9.42011 19.6327 9.83784 19.6327C10.2556 19.6327 10.5946 19.2944 10.5946 18.8776V10.5714H18.9189C19.3366 10.5714 19.6757 10.2331 19.6757 9.81633C19.6757 9.39951 19.3366 9.06122 18.9189 9.06122Z" transform="translate(18.1622 27.1837)" fill="#305DFF"/>
</svg>
