<svg width="63" height="51" viewBox="0 0 63 51" fill="none" xmlns="http://www.w3.org/2000/svg">
<path d="M6.45577 0.00320619C6.28613 0.0353963 6.13338 0.126137 6.02448 0.259433C5.91558 0.39273 5.85752 0.560011 5.86057 0.731733V2.91731H0.732671C0.686987 2.91304 0.641 2.91304 0.595316 2.91731C0.425678 2.9495 0.272927 3.04024 0.164025 3.17354C0.0551226 3.30684 -0.00292979 3.47412 0.00011388 3.64584V47.8128C0.000140513 48.006 0.07733 48.1912 0.214706 48.3278C0.352082 48.4644 0.538395 48.5412 0.732671 48.5412H26.0517C27.1979 50.1067 29.389 51 31.5001 51C33.6111 51 35.8023 50.1067 36.9485 48.5412H62.2674C62.4617 48.5412 62.648 48.4644 62.7854 48.3278C62.9228 48.1912 63 48.006 63 47.8128V3.64584C63 3.45263 62.9228 3.26734 62.7854 3.13072C62.648 2.9941 62.4617 2.91733 62.2674 2.91731H57.1395V0.731733C57.1395 0.538521 57.0623 0.353232 56.925 0.21661C56.7876 0.079989 56.6013 0.00322551 56.407 0.00320619H38.8256C35.0877 0.00320619 32.4131 1.30835 31.5001 1.82455C30.587 1.30835 27.9124 0.00320619 24.1745 0.00320619H6.59313C6.54744 -0.0010715 6.50145 -0.0010715 6.45577 0.00320619ZM7.32568 1.46026H24.1745C27.9935 1.46026 30.3464 2.86009 30.7675 3.12222V35.9286C29.6112 35.2551 27.5415 34.2439 24.1745 34.2439H7.32568V32.7869C7.32998 32.7414 7.32998 32.6957 7.32568 32.6503V1.46026ZM38.8256 1.46026H55.6744V32.673C55.6714 32.7109 55.6714 32.749 55.6744 32.7869V34.2439H38.8256C35.4586 34.2439 33.3889 35.2551 32.2326 35.9286V3.12222C32.6537 2.86009 35.0066 1.46026 38.8256 1.46026ZM1.46523 4.37437H5.86057V32.673C5.85758 32.7109 5.85758 32.749 5.86057 32.7869V34.9724C5.85866 35.0028 5.85866 35.0332 5.86057 35.0635V41.5292C5.8606 41.7224 5.93778 41.9077 6.07516 42.0443C6.21254 42.1809 6.39885 42.2576 6.59313 42.2577H24.1745C27.8171 42.2577 30.2418 43.765 30.8133 44.1473C30.7776 44.2417 30.762 44.3425 30.7675 44.4432V49.4974C29.1689 49.2775 27.5441 48.3832 27.0131 47.4485C26.9483 47.3368 26.8548 47.2442 26.7422 47.1801C26.6295 47.1161 26.5019 47.083 26.3722 47.0842H1.46523V4.37437ZM57.1395 4.37437H61.5349V47.0842H36.628C36.4983 47.083 36.3706 47.1161 36.2579 47.1801C36.1453 47.2442 36.0518 47.3368 35.987 47.4485C35.456 48.3832 33.8312 49.2775 32.2326 49.4974V44.4432C32.2381 44.3425 32.2225 44.2417 32.1868 44.1473C32.7583 43.765 35.183 42.2577 38.8256 42.2577H56.407C56.6013 42.2576 56.7876 42.1809 56.9249 42.0443C57.0623 41.9077 57.1395 41.7224 57.1395 41.5292V35.1091C57.1438 35.0636 57.1438 35.0179 57.1395 34.9724V32.7869C57.1406 32.764 57.1406 32.7412 57.1395 32.7184V4.37423V4.37437ZM7.32568 35.701H24.1745C28.1794 35.701 30.8118 37.5488 30.9964 37.6816C31.0314 37.7157 31.0698 37.7462 31.1109 37.7727C31.1185 37.7728 31.1262 37.7728 31.1338 37.7727C31.1902 37.8114 31.2519 37.8421 31.3169 37.8638C31.3246 37.8639 31.3322 37.8639 31.3398 37.8638C31.3551 37.8643 31.3703 37.8643 31.3856 37.8638C31.3932 37.8639 31.4009 37.8639 31.4085 37.8638C31.4235 37.8718 31.4388 37.8794 31.4543 37.8864C31.4619 37.8865 31.4695 37.8865 31.4772 37.8864C31.5466 37.8886 31.6159 37.881 31.6832 37.8638C31.7313 37.8458 31.7773 37.8229 31.8206 37.7953C31.8607 37.776 31.899 37.7531 31.935 37.7268C31.935 37.7268 31.9782 37.7057 31.9808 37.7042C31.9886 37.6969 31.9962 37.6893 32.0037 37.6816C32.1883 37.5488 34.8207 35.701 38.8256 35.701H55.6744V40.8007H38.8256C34.6556 40.8007 32.0538 42.514 31.5001 42.8952C30.9463 42.514 28.3445 40.8007 24.1745 40.8007H7.32568V35.701Z" fill="#305DFF"/>
</svg>
